{
  "accessors": [
    {
      "bufferView": 2,
      "componentType": 5126,
      "count": 825,
      "max": [
        0.3269670009613037,
        0.3257850110530853,
        14.033927917480469
      ],
      "min": [
        -0.3287630081176758,
        -0.3352319896221161,
        0.0470849983394146
      ],
      "type": "VEC3"
    },
    {
      "bufferView": 2,
      "byteOffset": 9900,
      "componentType": 5126,
      "count": 825,
      "max": [
        0.9999380111694336,
        0.9971394538879395,
        0.9896166324615479
      ],
      "min": [
        -0.996336817741394,
        -0.9923856854438782,
        -0.9999908208847046
      ],
      "type": "VEC3"
    },
    {
      "bufferView": 3,
      "componentType": 5126,
      "count": 825,
      "max": [
        0.9986200928688049,
        0.9999930262565613,
        0.701298177242279,
        1.0
      ],
      "min": [
        -0.9999938607215881,
        -0.9986482262611389,
        -0.7553060054779053,
        1.0
      ],
      "type": "VEC4"
    },
    {
      "bufferView": 1,
      "componentType": 5126,
      "count": 825,
      "max": [
        0.9932979941368103,
        0.9922850131988525
      ],
      "min": [
        0.007007999811321497,
        0.00827100034803152
      ],
      "type": "VEC2"
    },
    {
      "bufferView": 0,
      "componentType": 5125,
      "count": 4452,
      "type": "SCALAR"
    }
  ],
  "asset": {
    "extras": {
      "author": "eggiscool6253 (https://sketchfab.com/eggiscool6253)",
      "license": "CC-BY-4.0 (http://creativecommons.org/licenses/by/4.0/)",
      "source": "https://sketchfab.com/3d-models/the-elder-wand-52e750df556d4f7bb7b262a65d0353ae",
      "title": "The Elder Wand"
    },
    "generator": "Sketchfab-15.36.0",
    "version": "2.0"
  },
  "bufferViews": [
    {
      "buffer": 0,
      "byteLength": 17808,
      "name": "floatBufferViews",
      "target": 34963
    },
    {
      "buffer": 0,
      "byteLength": 6600,
      "byteOffset": 17808,
      "byteStride": 8,
      "name": "floatBufferViews",
      "target": 34962
    },
    {
      "buffer": 0,
      "byteLength": 19800,
      "byteOffset": 24408,
      "byteStride": 12,
      "name": "floatBufferViews",
      "target": 34962
    },
    {
      "buffer": 0,
      "byteLength": 13200,
      "byteOffset": 44208,
      "byteStride": 16,
      "name": "floatBufferViews",
      "target": 34962
    }
  ],
  "buffers": [
    {
      "byteLength": 57408,
      "uri": "scene.bin"
    }
  ],
  "extensionsUsed": [
    "KHR_materials_specular"
  ],
  "images": [
    {
      "uri": "textures/BSurfaceMesh_baseColor.png"
    },
    {
      "uri": "textures/BSurfaceMesh_metallicRoughness.png"
    },
    {
      "uri": "textures/BSurfaceMesh_normal.png"
    },
    {
      "uri": "textures/BSurfaceMesh_specularf0.png"
    }
  ],
  "materials": [
    {
      "doubleSided": true,
      "extensions": {
        "KHR_materials_specular": {
          "specularColorFactor": [
            1.0,
            1.0,
            1.0
          ],
          "specularFactor": 1.0,
          "specularTexture": {
            "index": 3
          }
        }
      },
      "name": "BSurfaceMesh",
      "normalTexture": {
        "index": 2
      },
      "pbrMetallicRoughness": {
        "baseColorTexture": {
          "index": 0
        },
        "metallicRoughnessTexture": {
          "index": 1
        }
      }
    }
  ],
  "meshes": [
    {
      "name": "Object_0",
      "primitives": [
        {
          "attributes": {
            "NORMAL": 1,
            "POSITION": 0,
            "TANGENT": 2,
            "TEXCOORD_0": 3
          },
          "indices": 4,
          "material": 0,
          "mode": 4
        }
      ]
    }
  ],
  "nodes": [
    {
      "children": [
        1
      ],
      "matrix": [
        0.22371695935726166,
        0.8093210458755494,
        -0.543093144893646,
        0.0,
        5.551115123125783e-17,
        -0.5572162866592405,
        -0.8303673863410951,
        0.0,
        -0.9746541380882263,
        0.18576726317405703,
        -0.12465872615575786,
        0.0,
        0.0,
        0.0,
        0.0,
        1.0
      ],
      "name": "Sketchfab_model"
    },
    {
      "children": [
        2
      ],
      "name": "bf9990b5ff85463d9f59b1beb13cc1c2.obj.cleaner.materialmerger.gles"
    },
    {
      "mesh": 0,
      "name": "Object_2"
    }
  ],
  "samplers": [
    {
      "magFilter": 9729,
      "minFilter": 9987,
      "wrapS": 10497,
      "wrapT": 10497
    }
  ],
  "scene": 0,
  "scenes": [
    {
      "name": "Sketchfab_Scene",
      "nodes": [
        0
      ]
    }
  ],
  "textures": [
    {
      "sampler": 0,
      "source": 0
    },
    {
      "sampler": 0,
      "source": 1
    },
    {
      "sampler": 0,
      "source": 2
    },
    {
      "sampler": 0,
      "source": 3
    }
  ]
}
